<svg height="512" viewBox="0 0 64 64" width="512" xmlns="http://www.w3.org/2000/svg"><path d="M53 30c0-.551.449-1 1-1s1 .449 1 1v1.518l-2-1.231zm-10-6c0-.551.449-1 1-1s1 .449 1 1v1.365l-2-1.231zm-24 0c0-.551.449-1 1-1s1 .449 1 1v.134l-2 1.231zM9 30c0-.551.449-1 1-1s1 .449 1 1v.288l-2 1.231zm-6 8.743v-1.185l23.774-14.63.611 10.187zm18 21.671l7.569-7.569.272 4.541L21 60.523zm12.122-2.47C33.086 58.536 32.593 59 32 59s-1.086-.464-1.122-1.057L28 10V9a8.05 8.05 0 011.6-4.8C30.163 3.449 31.061 3 32 3s1.837.449 2.4 1.2A8.05 8.05 0 0136 9l.002.94zM43 60.414v.109l-7.842-3.137.272-4.541zm18-21.671l-24.386-5.628.611-10.187L61 37.559z"/></svg>